# Blender v2.69 (sub 0) OBJ File: ''
# www.blender.org
o Plane
v 0.718498 0.675246 0.237808
v 0.538597 0.702070 0.446507
v 0.631103 0.736213 0.160523
v 0.795807 0.710166 -0.042738
v 0.605493 0.799932 0.000071
v 0.739208 0.748169 -0.108241
v 0.634648 0.890101 -0.271916
v 0.408080 0.758563 0.387083
v 0.278305 0.813927 0.496304
v 0.219869 0.926285 0.353440
v 0.361638 0.842448 0.143332
v 0.524298 0.731576 0.299111
v -0.198281 0.788059 0.866453
v -0.520653 0.792213 0.733135
v -0.358597 0.831104 0.756809
v -0.169833 0.693924 0.934494
v -0.335205 0.730846 0.873661
v -0.138350 0.847471 0.642491
v 0.088387 0.743688 0.840409
v -0.501751 0.862396 0.623455
v -0.654711 0.810340 0.553269
v -0.229578 0.885908 0.575310
v -0.434391 0.898564 0.492539
v 0.649901 -0.030440 0.359700
v 0.619740 -0.030693 0.413092
v 0.675991 0.226359 0.511799
v 0.604772 -0.030799 0.436655
v 0.818161 0.303379 0.310089
v 0.892228 0.337328 0.166622
v 0.837258 0.183260 0.206854
v 0.795666 0.502251 0.276375
v 0.818361 0.645472 0.104534
v 0.492020 -0.030166 0.583008
v 0.374981 0.212879 0.823099
v 0.386366 -0.030658 0.693460
v 0.375989 -0.030849 0.703842
v 0.614040 0.326343 0.612885
v 0.462292 0.426210 0.789219
v 0.549232 -0.030938 0.513693
v 0.571402 -0.030833 0.484787
v 0.638344 0.506476 0.537079
v 0.425283 0.605899 0.740723
v -0.128719 -0.031068 0.827646
v 0.133884 0.175335 0.932132
v -0.005297 -0.030787 0.857674
v -0.118542 0.318888 0.909151
v 0.076322 0.579026 0.928831
v 0.192737 0.321656 0.943987
v -0.763152 -0.031406 0.035875
v -0.819759 0.006859 -0.123447
v -0.927424 0.050116 0.063174
v -0.733708 -0.034308 -0.091873
v -0.763921 -0.030712 0.150889
v -0.976166 0.227356 0.254818
v -0.936072 0.119375 0.238647
v -0.979973 0.122619 0.100882
v -1.017669 0.272941 0.138802
v -0.738595 -0.032361 0.268124
v -0.907822 0.317505 -0.147249
v -0.955051 0.466709 0.057972
v -0.940528 0.546171 0.240867
v -0.835356 0.732805 0.170333
v -0.920408 0.481293 0.336895
v -0.204283 0.110938 -0.807198
v -0.132240 -0.031485 -0.676702
v -0.005371 -0.032212 -0.711908
v -0.469818 0.050836 -0.630161
v -0.261467 -0.030483 -0.607735
v -0.363319 0.192528 -0.763966
v -0.617160 0.212542 -0.598387
v -0.530972 -0.002277 -0.521236
v -0.274179 0.813016 -0.800300
v 0.105493 0.255029 -0.937379
v -0.110172 0.921459 -0.808396
v 0.233701 0.394991 -0.934993
v 0.249166 0.649956 -0.883577
v -0.372398 0.640209 -0.773440
v -0.035574 0.175831 -0.900189
v 0.094290 0.099772 -0.853933
v 0.103542 -0.030354 -0.708769
v 0.263176 0.205383 -0.888959
v 0.355442 0.351944 -0.889545
v 0.527603 0.602627 -0.694633
v 0.332753 0.764839 -0.826755
v 0.425423 0.173615 -0.730286
v 0.454330 -0.031014 -0.528423
v 0.611361 0.144097 -0.506832
v 0.591408 -0.029731 -0.375294
v 0.828991 0.150755 -0.153363
v 0.669257 0.119810 -0.439442
v 0.680692 -0.031142 -0.236271
v 0.730970 -0.029848 -0.089387
v 0.765244 0.347370 -0.414185
v 0.884871 0.343647 -0.204330
v 0.580452 0.360973 -0.678329
v 0.674625 0.761387 -0.424360
v 0.879166 0.575691 -0.106749
v 0.718624 0.615500 -0.432777
v 0.738792 -0.030760 0.061310
v 0.861091 0.179261 0.022778
v 0.707050 -0.031075 0.217079
v 0.926228 0.386437 -0.041252
v -0.483158 0.280613 0.816998
v -0.160277 0.130218 0.867509
v -0.278836 -0.030732 0.730923
v -0.316338 -0.031075 0.706615
v -0.368711 0.571911 0.933640
v -0.449435 0.360843 0.876864
v -0.438896 0.481594 0.905414
v -0.439941 -0.031702 0.627319
v -0.761326 0.117285 0.477337
v -0.601601 0.332342 0.739227
v -0.373709 -0.030799 0.669129
v -0.382299 -0.030799 0.663555
v -0.340289 -0.030799 0.690708
v -0.352639 -0.030799 0.682739
v -0.464176 0.551113 0.847523
v -0.653931 0.431973 0.654358
v -0.570007 0.621887 0.729691
v -0.796921 0.292082 0.519333
v -0.661021 -0.030566 0.417222
v -0.696701 -0.031489 0.361633
v -0.609253 -0.030958 0.485107
v -0.775619 0.742608 0.468708
v 0.171078 0.738363 0.735382
v 0.090544 0.813247 0.588001
v 0.293984 0.670456 0.764991
v 0.152798 0.896568 0.438179
v -0.282797 1.040695 0.210705
v -0.158096 0.989426 0.342819
v -0.712910 0.886937 -0.055839
v -0.841751 0.648979 -0.039043
v -0.562418 1.007616 -0.097500
v -0.478004 1.018684 0.041725
v 0.159241 -0.030726 0.834143
v 0.105520 -0.030757 0.850815
v 0.052368 -0.030872 0.858910
v 0.026370 -0.031182 0.860788
v 0.293655 0.395381 0.911141
v 0.268044 -0.031191 0.790169
v 0.347817 -0.030729 0.729627
v 0.334808 -0.030516 0.741177
v 0.212576 -0.030789 0.815004
v 0.183664 -0.030781 0.825519
v 0.320816 0.520595 0.870140
v 0.369224 0.539376 0.846428
v -0.633621 0.035112 -0.482006
v -0.742073 0.108252 -0.384094
v -0.809679 0.067775 -0.230738
v -0.669695 -0.012227 -0.346661
v -0.627319 -0.029081 -0.277344
v -0.547985 -0.031476 -0.386917
v -0.452698 -0.031279 -0.477493
v -0.682550 -0.030473 -0.187965
v -0.608314 0.550012 -0.613664
v -0.491576 0.995172 -0.644286
v -0.561721 0.781699 -0.589240
v -0.680623 0.438539 -0.455080
v -0.687740 0.386690 -0.484474
v -0.798444 0.555272 -0.185072
v -0.682723 0.715374 -0.334675
v -0.891680 0.454746 -0.124986
v -0.816624 0.306547 -0.255833
v -0.414634 1.122410 -0.147072
v -0.563581 1.072736 -0.329536
v -0.664383 0.972098 -0.174396
v -0.051548 1.118151 0.193017
v -0.299919 1.114432 0.046463
v 0.110890 0.982835 0.287016
v 0.201132 0.986313 0.136452
v -0.539914 1.048644 -0.496887
v -0.648234 0.766560 -0.431103
v -0.457691 1.040129 -0.614006
v -0.408987 1.109629 -0.498504
v 0.292150 0.890401 0.206181
v 0.269707 1.032513 -0.012749
v 0.530696 0.901202 -0.088220
v 0.609811 0.861320 -0.095202
v 0.541576 0.975169 -0.267814
v 0.540390 0.970156 -0.439602
v 0.372052 1.030291 -0.593860
v 0.423779 0.948996 -0.672668
v -0.213463 0.995492 -0.760382
v 0.055687 1.021682 -0.737794
v 0.298759 0.972890 -0.733732
v -0.164078 1.117691 -0.480286
v 0.026396 1.107833 0.072758
v 0.136727 1.067895 -0.599214
v 0.068672 1.104117 0.103888
v 0.403293 1.047566 -0.389981
v -0.882074 0.666980 0.243717
v 0.588593 -0.030792 0.460446
v 0.677447 -0.030765 0.299439
v 0.413908 -0.030924 0.666925
v -0.893167 0.058256 -0.119389
v -0.352514 -0.030986 -0.550817
v -0.294998 -0.031381 -0.587952
v 0.263706 -0.029591 -0.654398
v 0.376802 -0.030682 -0.587248
v -0.467503 -0.030716 0.606173
v -0.527435 -0.030894 0.560805
v 0.303350 -0.030825 0.765130
v 0.320424 -0.030822 0.752279
v 0.237377 -0.030793 0.804554
v 0.498696 -0.030761 0.574994
v 0.501030 -0.030799 0.571812
v -0.681924 -0.030695 -0.189476
v 0.593122 -0.030799 0.453853
v -0.452929 -0.030799 0.616156
v -0.007271 -0.030799 0.857434
v -0.316474 -0.030799 0.706181
v 0.375360 -0.030799 0.704472
v 0.052542 -0.030799 0.858567
v 0.376704 -0.030799 -0.587486
v -0.478456 -0.031101 0.597825
v 0.413553 -0.030799 0.667100
v 0.680971 -0.030799 0.290287
v -0.349251 -0.031214 -0.552711
v 0.674543 -0.030799 0.306412
v -0.664381 -0.030799 0.412022
v 0.302994 -0.030799 0.765411
v 0.161414 -0.030799 0.833371
v 0.206786 -0.030799 0.817192
v 0.620854 -0.030799 0.411447
v -0.506151 -0.030799 0.577025
v -0.408482 -0.030799 0.646380
v -0.245833 -0.030799 -0.616922
v 0.353791 -0.030799 0.724215
v -0.525612 -0.031047 0.561760
v -0.370795 -0.030799 -0.537649
v 0.320924 -0.030799 0.751834
v 0.228185 -0.030799 0.808606
v 0.553593 -0.030799 0.507526
v -0.279437 -0.030799 0.730639
vn -0.612384 -0.699332 -0.368572
vn -0.517624 -0.782128 -0.346873
vn -0.379406 -0.889004 -0.256325
vn -0.691549 -0.716239 -0.093265
vn -0.458083 -0.805872 -0.375103
vn -0.030824 -0.807276 -0.589312
vn -0.755699 -0.654683 0.016724
vn -0.460524 -0.876003 -0.143071
vn -0.398938 -0.826716 -0.396680
vn -0.430372 -0.857997 -0.280282
vn -0.516465 -0.789270 -0.332041
vn -0.290262 -0.933195 -0.211829
vn -0.002380 -0.794122 -0.607746
vn 0.520920 -0.531632 -0.667806
vn 0.128025 -0.869839 -0.476424
vn -0.009583 -0.331095 -0.943541
vn 0.366680 -0.505509 -0.780999
vn -0.171941 -0.941191 -0.290750
vn -0.305979 -0.759392 -0.574145
vn 0.279977 -0.913175 -0.296060
vn 0.556749 -0.746696 -0.363872
vn -0.059816 -0.930082 -0.362377
vn 0.196905 -0.940977 -0.275185
vn -0.810842 0.382138 -0.443289
vn -0.802933 0.358555 -0.476169
vn -0.797021 0.192022 -0.572588
vn -0.778826 0.364793 -0.510251
vn -0.865902 0.039613 -0.498581
vn -0.956481 0.011719 -0.291543
vn -0.883480 0.363475 -0.295541
vn -0.837184 -0.301401 -0.456313
vn -0.797998 -0.535325 -0.276772
vn -0.702126 0.322879 -0.634640
vn -0.580859 0.248848 -0.775018
vn -0.660365 0.328574 -0.675246
vn -0.657398 0.328995 -0.677931
vn -0.793908 0.042848 -0.606494
vn -0.702567 -0.066744 -0.708457
vn -0.728854 0.354764 -0.585588
vn -0.749826 0.363018 -0.553154
vn -0.779778 -0.328776 -0.532731
vn -0.602771 -0.572619 -0.555620
vn 0.284981 0.309614 -0.907152
vn -0.116611 0.228980 -0.966399
vn 0.190748 0.217026 -0.957348
vn 0.092990 0.128178 -0.987365
vn -0.146702 -0.226753 -0.962828
vn -0.187872 0.069826 -0.979675
vn 0.440593 0.897077 0.033623
vn 0.504746 0.831080 0.233436
vn 0.682791 0.730583 -0.002533
vn 0.376269 0.918684 0.120171
vn 0.468616 0.881263 -0.061442
vn 0.886715 0.176885 -0.427076
vn 0.754906 0.540025 -0.372051
vn 0.918455 0.394360 0.030030
vn 0.999878 0.012268 0.009247
vn 0.590680 0.769002 -0.244404
vn 0.856227 -0.058260 0.513260
vn 0.926939 -0.309458 0.212012
vn 0.932585 -0.335856 -0.132054
vn 0.804285 -0.594043 0.012787
vn 0.868435 -0.143254 -0.474624
vn 0.305124 0.526414 0.793573
vn 0.226973 0.732843 0.641424
vn 0.096441 0.711703 0.695829
vn 0.427107 0.593310 0.682272
vn 0.266545 0.827709 0.493813
vn 0.467299 0.206977 0.859493
vn 0.700003 0.163823 0.695059
vn 0.339885 0.834590 0.433454
vn 0.322550 -0.171728 0.930815
vn 0.027589 0.172887 0.984527
vn 0.058290 -0.358989 0.931486
vn -0.154698 -0.050295 0.986663
vn -0.171636 -0.239021 0.955718
vn 0.459670 -0.046297 0.886868
vn 0.210913 0.335856 0.917966
vn -0.077761 0.636128 0.767632
vn -0.139948 0.732845 0.665847
vn -0.363323 0.446364 0.817743
vn -0.533586 0.103336 0.839381
vn -0.726157 -0.182806 0.662740
vn -0.391461 -0.319010 0.863094
vn -0.588183 0.478317 0.652089
vn -0.594079 0.526600 0.608081
vn -0.671255 0.411634 0.616382
vn -0.694329 0.513197 0.504516
vn -0.871822 0.420881 0.250465
vn -0.706900 0.429060 0.562243
vn -0.785977 0.445325 0.428866
vn -0.840875 0.519279 0.152571
vn -0.838649 0.097201 0.535905
vn -0.929777 0.108463 0.351726
vn -0.749077 0.120731 0.651357
vn -0.824335 -0.393536 0.406903
vn -0.929136 -0.345775 0.130711
vn -0.838771 -0.209510 0.502487
vn -0.860871 0.504691 -0.064718
vn -0.919034 0.393933 -0.012055
vn -0.834355 0.495330 -0.241867
vn -0.999756 0.003327 0.020966
vn 0.506699 0.408856 -0.758995
vn 0.104190 0.255623 -0.961119
vn 0.466903 0.506761 -0.724703
vn 0.464998 0.506117 -0.726376
vn 0.353160 -0.149815 -0.923460
vn 0.416547 0.257118 -0.871975
vn 0.502640 -0.007294 -0.864437
vn 0.509669 0.496102 -0.702937
vn 0.665395 0.464431 -0.584368
vn 0.709037 0.118778 -0.695059
vn -0.428170 0.617428 0.659889
vn -0.318522 0.809235 0.493642
vn 0.695822 -0.256996 -0.670614
vn 0.728782 -0.087374 -0.679098
vn 0.696005 -0.145482 -0.703116
vn 0.762291 0.104129 -0.638752
vn 0.641030 0.619252 -0.453439
vn 0.637555 0.656402 -0.403312
vn 0.588937 0.574352 -0.568572
vn 0.757866 -0.501389 -0.417371
vn -0.321451 -0.892270 -0.316996
vn -0.190527 -0.889035 -0.416272
vn -0.422071 -0.725852 -0.543107
vn -0.208319 -0.827784 -0.520920
vn 0.270455 -0.877194 -0.396649
vn 0.019837 -0.860134 -0.509629
vn 0.758293 -0.648091 -0.069979
vn 0.871426 -0.401502 0.281747
vn 0.526261 -0.815149 -0.241920
vn 0.453047 -0.848781 -0.272530
vn -0.293279 0.380893 -0.876874
vn -0.205568 0.383542 -0.900354
vn -0.098875 0.367462 -0.924768
vn 0.037571 0.308768 -0.950395
vn -0.417798 -0.019776 -0.908292
vn -0.470672 0.327890 -0.819119
vn -0.628750 0.338689 -0.699973
vn -0.601016 0.342288 -0.722232
vn -0.347397 0.359507 -0.866066
vn -0.313271 0.375517 -0.872266
vn -0.316233 -0.364086 -0.876003
vn -0.482101 -0.395795 -0.781579
vn 0.611957 0.579333 0.538347
vn 0.833827 0.242714 0.495743
vn 0.776482 0.389843 0.495010
vn 0.453475 0.843165 0.288797
vn 0.185259 0.974863 0.123776
vn 0.219329 0.952292 0.212214
vn 0.206019 0.944114 0.257304
vn 0.165427 0.978157 0.125864
vn 0.766717 -0.083285 0.636555
vn 0.631245 -0.422803 0.650166
vn 0.895169 -0.220161 0.387463
vn 0.972869 -0.128574 0.192206
vn 0.947661 -0.086642 0.307199
vn 0.829218 -0.265236 0.491897
vn 0.911588 -0.224158 0.344584
vn 0.818964 -0.260414 0.511307
vn 0.822718 -0.067690 0.564348
vn 0.279122 -0.952178 -0.124119
vn 0.594623 -0.802057 0.055757
vn 0.775506 -0.631306 -0.004517
vn -0.083285 -0.935331 -0.343822
vn 0.229957 -0.944609 -0.234107
vn -0.463820 -0.833857 -0.299173
vn -0.546678 -0.734733 -0.401593
vn 0.716392 -0.616840 0.325907
vn 0.923704 -0.233924 0.303323
vn 0.339854 -0.790155 0.510025
vn 0.194189 -0.949919 0.244789
vn -0.614856 -0.772515 -0.158452
vn -0.451888 -0.829920 -0.327067
vn -0.462905 -0.772546 -0.434584
vn -0.554796 -0.743584 -0.373119
vn -0.539079 -0.830531 -0.139958
vn -0.669790 -0.706137 0.229560
vn -0.353160 -0.882168 0.311441
vn -0.610340 -0.531144 0.587634
vn 0.174535 -0.635945 0.751701
vn -0.075503 -0.756371 0.649739
vn -0.267586 -0.642628 0.717917
vn -0.034028 -0.985473 0.166204
vn -0.120945 -0.992065 0.033937
vn -0.119144 -0.962249 0.244575
vn -0.355296 -0.914182 -0.194922
vn -0.317454 -0.948057 0.019807
vn 0.859798 -0.506943 -0.060793
vn -0.764959 0.365845 -0.530090
vn -0.816971 0.459014 -0.349091
vn -0.683374 0.313300 -0.659426
vn 0.784661 0.480514 0.391614
vn 0.204746 0.922258 0.327902
vn 0.311809 -0.813090 0.491588
vn -0.365544 0.643443 0.672576
vn -0.455920 0.580726 0.674459
vn 0.543247 0.477141 -0.690811
vn 0.545481 0.470191 -0.693809
vn -0.554729 0.343328 -0.757893
vn -0.571391 0.344392 -0.744921
vn -0.386808 0.337052 -0.858357
s 1
f 1//1 2//2 3//3
f 4//4 1//1 3//3
f 4//4 3//3 5//5
f 5//5 6//6 4//4
f 6//6 7//7 4//4
f 8//8 2//2 9//9
f 8//8 9//9 10//10
f 11//11 3//3 12//12
f 11//11 5//5 3//3
f 8//8 12//12 2//2
f 12//12 3//3 2//2
f 13//13 14//14 15//15
f 16//16 17//17 13//13
f 13//13 15//15 18//18
f 13//13 19//19 16//16
f 14//14 13//13 17//17
f 15//15 14//14 20//20
f 14//14 21//21 20//20
f 15//15 20//20 22//22
f 20//20 21//21 23//23
f 24//24 25//25 26//26
f 25//25 27//27 26//26
f 28//28 29//29 30//30
f 31//31 32//32 29//29
f 26//26 33//33 34//34
f 35//35 36//36 34//34
f 37//37 34//34 38//38
f 33//33 26//26 39//39
f 39//39 26//26 40//40
f 41//41 38//38 42//42
f 41//41 37//37 38//38
f 2//2 1//1 41//41
f 43//43 44//44 45//45
f 46//46 47//47 48//48
f 49//49 50//50 51//51
f 49//49 52//52 50//50
f 49//49 51//51 53//53
f 54//54 55//55 56//56
f 57//57 54//54 56//56
f 51//51 58//58 53//53
f 57//57 59//59 60//60
f 61//61 60//60 62//62
f 57//57 63//63 54//54
f 64//64 65//65 66//66
f 67//67 68//68 65//65
f 67//67 69//69 70//70
f 67//67 71//71 68//68
f 72//72 73//73 74//74
f 73//73 75//75 74//74
f 75//75 76//76 74//74
f 77//77 69//69 78//78
f 77//77 70//70 69//69
f 79//79 73//73 78//78
f 79//79 66//66 80//80
f 75//75 81//81 82//82
f 82//82 83//83 84//84
f 82//82 76//76 75//75
f 82//82 84//84 76//76
f 85//85 86//86 87//87
f 81//81 85//85 82//82
f 88//88 89//89 90//90
f 91//91 89//89 88//88
f 91//91 92//92 89//89
f 93//93 90//90 94//94
f 90//90 89//89 94//94
f 87//87 93//93 95//95
f 90//90 87//87 88//88
f 96//96 97//97 7//7
f 98//98 96//96 83//83
f 98//98 95//95 93//93
f 99//99 30//30 100//100
f 99//99 101//101 30//30
f 102//102 100//100 29//29
f 100//100 30//30 29//29
f 100//100 102//102 94//94
f 99//99 100//100 92//92
f 4//4 7//7 97//97
f 97//97 98//98 94//94
f 103//103 104//104 43//43
f 103//103 105//105 106//106
f 103//103 43//43 105//105
f 107//107 108//108 109//109
f 16//16 46//46 107//107
f 110//110 111//111 103//103
f 103//103 111//111 112//112
f 103//103 106//106 110//110
f 106//113 113//113 114//113
f 106//114 115//114 116//114
f 117//115 118//116 119//117
f 112//112 120//118 118//116
f 109//109 117//115 107//107
f 117//115 119//117 17//17
f 117//115 109//109 112//112
f 111//111 55//55 54//54
f 120//118 112//112 111//111
f 111//111 121//119 122//120
f 111//111 123//121 121//119
f 63//63 124//122 119//117
f 120//118 119//117 118//116
f 125//123 18//18 126//124
f 18//18 22//22 126//124
f 125//123 127//125 19//19
f 128//126 10//10 9//9
f 127//125 2//2 42//42
f 127//125 9//9 2//2
f 9//9 127//125 125//123
f 22//22 20//20 23//23
f 129//127 130//128 22//22
f 126//124 22//22 130//128
f 131//129 62//62 132//130
f 124//122 131//129 133//131
f 23//23 134//132 129//127
f 44//44 135//133 136//134
f 137//135 138//136 44//44
f 136//134 137//135 44//44
f 139//137 34//34 48//48
f 140//138 44//44 34//34
f 34//34 141//139 142//140
f 143//141 144//142 44//44
f 145//143 47//47 19//19
f 145//143 19//19 127//125
f 139//137 48//48 47//47
f 146//144 145//143 127//125
f 146//144 42//42 38//38
f 139//137 146//144 38//38
f 147//145 70//70 148//146
f 71//71 67//67 147//145
f 67//67 70//70 147//145
f 147//145 149//147 150//148
f 147//145 148//146 149//147
f 147//145 150//148 71//71
f 150//148 151//149 152//150
f 71//71 152//150 153//151
f 50//50 150//148 149//147
f 154//152 151//149 150//148
f 155//153 156//154 157//155
f 158//156 148//146 159//157
f 160//158 158//156 161//159
f 155//153 70//70 77//77
f 159//157 70//70 155//153
f 160//158 161//159 132//130
f 162//160 160//158 132//130
f 59//59 149//147 163//161
f 149//147 148//146 163//161
f 164//162 133//131 165//163
f 133//131 166//164 165//163
f 133//131 164//162 134//132
f 129//127 167//165 130//128
f 129//127 168//166 167//165
f 169//167 10//10 128//126
f 167//165 128//126 130//128
f 167//165 170//168 169//167
f 156//154 171//169 157//155
f 157//155 171//169 172//170
f 171//169 166//164 161//159
f 165//163 166//164 171//169
f 171//169 156//154 173//171
f 156//154 77//77 72//72
f 174//172 164//162 165//163
f 170//168 175//173 169//167
f 170//168 11//11 175//173
f 175//173 10//10 169//167
f 170//168 176//174 11//11
f 177//175 11//11 176//174
f 177//175 178//176 5//5
f 177//175 176//174 179//177
f 180//178 181//179 182//180
f 182//180 96//96 180//178
f 96//96 7//7 180//178
f 183//181 74//74 184//182
f 74//74 185//183 184//182
f 164//162 186//184 187//185
f 186//184 174//172 184//182
f 186//184 184//182 188//186
f 176//174 189//187 187//185
f 187//185 190//188 176//174
f 181//179 184//182 185//183
f 179//177 176//174 190//188
f 181//179 180//178 190//188
f 190//188 180//178 179//177
f 1//1 4//4 32//32
f 11//11 12//12 8//8
f 16//16 107//107 17//17
f 16//16 19//19 47//47
f 119//117 14//14 17//17
f 14//14 124//122 21//21
f 14//14 119//117 124//122
f 191//189 124//122 61//61
f 124//122 191//189 62//62
f 26//26 30//30 24//24
f 26//26 192//190 40//40
f 26//26 27//27 192//190
f 28//28 30//30 26//26
f 24//24 30//30 193//191
f 193//191 30//30 101//101
f 31//31 1//1 32//32
f 31//31 29//29 41//41
f 41//41 29//29 28//28
f 33//33 194//192 34//34
f 34//34 194//192 35//35
f 34//34 36//36 141//139
f 37//37 26//26 34//34
f 41//41 26//26 37//37
f 41//41 1//1 31//31
f 41//41 42//42 2//2
f 41//41 28//28 26//26
f 44//44 43//43 46//46
f 46//46 43//43 104//104
f 45//45 44//44 138//136
f 47//47 46//46 16//16
f 44//44 46//46 48//48
f 51//51 50//50 195//193
f 56//56 51//51 195//193
f 51//51 56//56 55//55
f 57//57 56//56 59//59
f 61//61 57//57 60//60
f 191//189 61//61 62//62
f 57//57 61//61 63//63
f 64//64 67//67 65//65
f 68//68 196//194 197//195
f 64//64 78//78 69//69
f 64//64 66//66 78//78
f 67//67 64//64 69//69
f 68//68 71//71 196//194
f 196//194 71//71 153//151
f 78//78 73//73 77//77
f 77//77 73//73 72//72
f 81//81 79//79 198//196
f 198//196 79//79 80//80
f 79//79 81//81 73//73
f 78//78 66//66 79//79
f 75//75 73//73 81//81
f 86//86 85//85 199//197
f 199//197 85//85 198//196
f 85//85 87//87 95//95
f 85//85 95//95 82//82
f 85//85 81//81 198//196
f 98//98 83//83 95//95
f 83//83 82//82 95//95
f 84//84 83//83 182//180
f 87//87 90//90 93//93
f 87//87 86//86 88//88
f 98//98 93//93 94//94
f 96//96 98//98 97//97
f 100//100 94//94 89//89
f 100//100 89//89 92//92
f 32//32 102//102 29//29
f 97//97 32//32 4//4
f 32//32 97//97 102//102
f 102//102 97//97 94//94
f 103//103 108//108 104//104
f 107//107 104//104 108//108
f 46//46 104//104 107//107
f 111//111 110//110 200//198
f 111//111 201//199 123//121
f 111//111 200//198 201//199
f 103//103 112//112 108//108
f 117//115 112//112 118//116
f 107//107 117//115 17//17
f 112//112 109//109 108//108
f 55//55 58//58 51//51
f 55//55 122//120 58//58
f 120//118 111//111 54//54
f 55//55 111//111 122//120
f 63//63 120//118 54//54
f 124//122 63//63 61//61
f 120//118 63//63 119//117
f 125//123 19//19 18//18
f 19//19 13//13 18//18
f 9//9 125//123 126//124
f 126//124 128//126 9//9
f 23//23 129//127 22//22
f 15//15 22//22 18//18
f 131//129 124//122 62//62
f 131//129 166//164 133//131
f 131//129 132//130 166//164
f 133//131 134//132 124//122
f 134//132 21//21 124//122
f 134//132 23//23 21//21
f 44//44 48//48 34//34
f 44//44 144//142 135//133
f 139//137 38//38 34//34
f 140//138 34//34 202//200
f 202//200 34//34 203//201
f 203//201 34//34 142//140
f 140//138 204//202 44//44
f 204//202 143//141 44//44
f 139//137 145//143 146//144
f 145//143 139//137 47//47
f 42//42 146//144 127//125
f 71//71 150//148 152//150
f 59//59 195//193 149//147
f 50//50 149//147 195//193
f 50//50 52//52 150//148
f 154//152 150//148 52//52
f 155//153 77//77 156//154
f 159//157 155//153 172//170
f 158//156 159//157 172//170
f 158//156 172//170 161//159
f 155//153 157//155 172//170
f 172//170 171//169 161//159
f 70//70 159//157 148//146
f 132//130 161//159 166//164
f 60//60 162//160 132//130
f 60//60 132//130 62//62
f 195//193 59//59 56//56
f 162//160 60//60 59//59
f 158//156 160//158 163//161
f 160//158 162//160 59//59
f 163//161 160//158 59//59
f 158//156 163//161 148//146
f 134//132 164//162 168//166
f 129//127 134//132 168//166
f 130//128 128//126 126//124
f 128//126 167//165 169//167
f 174//172 171//169 173//171
f 173//171 183//181 174//172
f 173//171 156//154 183//181
f 171//169 174//172 165//163
f 175//173 11//11 10//10
f 10//10 11//11 8//8
f 176//174 170//168 189//187
f 189//187 170//168 167//165
f 5//5 178//176 6//6
f 6//6 178//176 7//7
f 177//175 5//5 11//11
f 178//176 177//175 179//177
f 7//7 178//176 179//177
f 96//96 182//180 83//83
f 180//178 7//7 179//177
f 74//74 183//181 72//72
f 183//181 156//154 72//72
f 184//182 174//172 183//181
f 84//84 185//183 76//76
f 76//76 185//183 74//74
f 182//180 185//183 84//84
f 164//162 174//172 186//184
f 164//162 187//185 168//166
f 187//185 167//165 168//166
f 167//165 187//185 189//187
f 190//188 187//185 186//184
f 188//186 190//188 186//184
f 181//179 190//188 188//186
f 181//179 188//186 184//182
f 181//179 185//183 182//180
l 208 192
l 213 137
l 196 230
l 204 232
l 203 231
l 228 141
l 193 219
l 143 223
l 202 221
l 33 205
l 201 225
l 200 209
l 68 227
l 193 217
l 194 216
l 211 106
l 25 224
l 110 226
l 135 222
l 154 207
l 200 215
l 39 233
l 212 36
l 205 206
l 121 220
l 199 214
l 105 234
l 45 210
l 201 229
l 196 218
